<?xml version="1.0" encoding="us-ascii" standalone="no"?><svg xmlns="http://www.w3.org/2000/svg" xmlns:xlink="http://www.w3.org/1999/xlink" contentStyleType="text/css" height="812px" preserveAspectRatio="none" style="width:926px;height:812px;background:#F9F9F9;" version="1.1" viewBox="0 0 926 812" width="926px" zoomAndPan="magnify"><defs/><g><rect fill="#F9F9F9" height="812" style="stroke:none;stroke-width:1.0;" width="926" x="0" y="0"/><rect fill="none" height="265" rx="3.5" ry="3.5" style="stroke:#393939;stroke-width:1.0;" width="691" x="228.5" y="156.5625"/><rect fill="none" height="221.0625" rx="3.5" ry="3.5" style="stroke:#393939;stroke-width:1.0;" width="691" x="228.5" y="464.6953"/><line style="stroke:#393939;stroke-width:0.5;stroke-dasharray:5.0,5.0;" x1="23" x2="23" y1="81.2969" y2="731.8906"/><line style="stroke:#393939;stroke-width:0.5;stroke-dasharray:5.0,5.0;" x1="278.5" x2="278.5" y1="81.2969" y2="731.8906"/><line style="stroke:#393939;stroke-width:0.5;stroke-dasharray:5.0,5.0;" x1="477" x2="477" y1="81.2969" y2="731.8906"/><line style="stroke:#393939;stroke-width:0.5;stroke-dasharray:5.0,5.0;" x1="626" x2="626" y1="81.2969" y2="731.8906"/><line style="stroke:#393939;stroke-width:0.5;stroke-dasharray:5.0,5.0;" x1="754.5" x2="754.5" y1="81.2969" y2="731.8906"/><line style="stroke:#393939;stroke-width:0.5;stroke-dasharray:5.0,5.0;" x1="859.5" x2="859.5" y1="81.2969" y2="731.8906"/><text fill="#191919" font-family="sans-serif" font-size="14" lengthAdjust="spacing" textLength="31" x="5" y="77.9951">User</text><ellipse cx="23.5" cy="13.5" fill="#191919" rx="8" ry="8" style="stroke:#191919;stroke-width:0.5;"/><path d="M23.5,21.5 L23.5,48.5 M10.5,29.5 L36.5,29.5 M23.5,48.5 L10.5,63.5 M23.5,48.5 L36.5,63.5 " fill="none" style="stroke:#191919;stroke-width:0.5;"/><text fill="#191919" font-family="sans-serif" font-size="14" lengthAdjust="spacing" textLength="31" x="5" y="743.8857">User</text><ellipse cx="23.5" cy="755.6875" fill="#191919" rx="8" ry="8" style="stroke:#191919;stroke-width:0.5;"/><path d="M23.5,763.6875 L23.5,790.6875 M10.5,771.6875 L36.5,771.6875 M23.5,790.6875 L10.5,805.6875 M23.5,790.6875 L36.5,805.6875 " fill="none" style="stroke:#191919;stroke-width:0.5;"/><rect fill="#E55756" height="30.2969" rx="3.5" ry="3.5" style="stroke:#191919;stroke-width:1.5;" width="80" x="238.5" y="50"/><text fill="#F9F9F9" font-family="sans-serif" font-size="14" lengthAdjust="spacing" textLength="66" x="245.5" y="69.9951">Frontend</text><rect fill="#E55756" height="30.2969" rx="3.5" ry="3.5" style="stroke:#191919;stroke-width:1.5;" width="80" x="238.5" y="730.8906"/><text fill="#F9F9F9" font-family="sans-serif" font-size="14" lengthAdjust="spacing" textLength="66" x="245.5" y="750.8857">Frontend</text><rect fill="#E55756" height="30.2969" rx="3.5" ry="3.5" style="stroke:#191919;stroke-width:1.5;" width="149" x="403" y="50"/><text fill="#F9F9F9" font-family="sans-serif" font-size="14" lengthAdjust="spacing" textLength="135" x="410" y="69.9951">BackendController</text><rect fill="#E55756" height="30.2969" rx="3.5" ry="3.5" style="stroke:#191919;stroke-width:1.5;" width="149" x="403" y="730.8906"/><text fill="#F9F9F9" font-family="sans-serif" font-size="14" lengthAdjust="spacing" textLength="135" x="410" y="750.8857">BackendController</text><rect fill="#E55756" height="30.2969" rx="3.5" ry="3.5" style="stroke:#191919;stroke-width:1.5;" width="129" x="562" y="50"/><text fill="#F9F9F9" font-family="sans-serif" font-size="14" lengthAdjust="spacing" textLength="115" x="569" y="69.9951">BackendService</text><rect fill="#E55756" height="30.2969" rx="3.5" ry="3.5" style="stroke:#191919;stroke-width:1.5;" width="129" x="562" y="730.8906"/><text fill="#F9F9F9" font-family="sans-serif" font-size="14" lengthAdjust="spacing" textLength="115" x="569" y="750.8857">BackendService</text><rect fill="#E55756" height="30.2969" rx="3.5" ry="3.5" style="stroke:#191919;stroke-width:1.5;" width="90" x="709.5" y="50"/><text fill="#F9F9F9" font-family="sans-serif" font-size="14" lengthAdjust="spacing" textLength="76" x="716.5" y="69.9951">BaseDatos</text><rect fill="#E55756" height="30.2969" rx="3.5" ry="3.5" style="stroke:#191919;stroke-width:1.5;" width="90" x="709.5" y="730.8906"/><text fill="#F9F9F9" font-family="sans-serif" font-size="14" lengthAdjust="spacing" textLength="76" x="716.5" y="750.8857">BaseDatos</text><rect fill="#E55756" height="30.2969" rx="3.5" ry="3.5" style="stroke:#191919;stroke-width:1.5;" width="100" x="809.5" y="50"/><text fill="#F9F9F9" font-family="sans-serif" font-size="14" lengthAdjust="spacing" textLength="86" x="816.5" y="69.9951">BackendUtil</text><rect fill="#E55756" height="30.2969" rx="3.5" ry="3.5" style="stroke:#191919;stroke-width:1.5;" width="100" x="809.5" y="730.8906"/><text fill="#F9F9F9" font-family="sans-serif" font-size="14" lengthAdjust="spacing" textLength="86" x="816.5" y="750.8857">BackendUtil</text><polygon fill="#191919" points="266.5,108.4297,276.5,112.4297,266.5,116.4297,270.5,112.4297" style="stroke:#191919;stroke-width:1.0;"/><line style="stroke:#191919;stroke-width:1.0;" x1="23.5" x2="272.5" y1="112.4297" y2="112.4297"/><text fill="#000000" font-family="sans-serif" font-size="13" lengthAdjust="spacing" textLength="167" x="30.5" y="107.3638">Realiza una solicitud HTTP</text><polygon fill="#191919" points="465.5,137.5625,475.5,141.5625,465.5,145.5625,469.5,141.5625" style="stroke:#191919;stroke-width:1.0;"/><line style="stroke:#191919;stroke-width:1.0;" x1="278.5" x2="471.5" y1="141.5625" y2="141.5625"/><text fill="#000000" font-family="sans-serif" font-size="13" lengthAdjust="spacing" textLength="106" x="285.5" y="136.4966">Envia la solicitud</text><path d="M232,156.5625 L294.5,156.5625 L294.5,163.6953 L284.5,173.6953 L228.5,173.6953 L228.5,160.0625 A3.5,3.5 0 0 1 232,156.5625 " fill="#EEEEEE" style="stroke:#393939;stroke-width:1.5;"/><rect fill="none" height="265" rx="3.5" ry="3.5" style="stroke:#393939;stroke-width:1.0;" width="691" x="228.5" y="156.5625"/><text fill="#191919" font-family="sans-serif" font-size="13" font-weight="bold" lengthAdjust="spacing" textLength="21" x="243.5" y="169.6294">alt</text><text fill="#393939" font-family="sans-serif" font-size="11" font-weight="bold" lengthAdjust="spacing" textLength="126" x="309.5" y="168.7729">[usuario no existe]</text><line style="stroke:#191919;stroke-width:1.0;" x1="624.5" x2="614.5" y1="194.8281" y2="190.8281"/><line style="stroke:#191919;stroke-width:1.0;" x1="624.5" x2="614.5" y1="194.8281" y2="198.8281"/><line style="stroke:#191919;stroke-width:1.0;" x1="477.5" x2="625.5" y1="194.8281" y2="194.8281"/><text fill="#000000" font-family="sans-serif" font-size="13" lengthAdjust="spacing" textLength="94" x="484.5" y="189.7622">Buscar usuario</text><line style="stroke:#191919;stroke-width:1.0;" x1="752.5" x2="742.5" y1="223.9609" y2="219.9609"/><line style="stroke:#191919;stroke-width:1.0;" x1="752.5" x2="742.5" y1="223.9609" y2="227.9609"/><line style="stroke:#191919;stroke-width:1.0;" x1="626.5" x2="753.5" y1="223.9609" y2="223.9609"/><text fill="#000000" font-family="sans-serif" font-size="13" lengthAdjust="spacing" textLength="104" x="633.5" y="218.895">Envia la petici&#243;n</text><polygon fill="#191919" points="637.5,249.0938,627.5,253.0938,637.5,257.0938,633.5,253.0938" style="stroke:#191919;stroke-width:1.0;"/><line style="stroke:#191919;stroke-width:1.0;stroke-dasharray:2.0,2.0;" x1="631.5" x2="753.5" y1="253.0938" y2="253.0938"/><text fill="#000000" font-family="sans-serif" font-size="13" lengthAdjust="spacing" textLength="64" x="643.5" y="248.0278">Resultado</text><polygon fill="#191919" points="488.5,278.2266,478.5,282.2266,488.5,286.2266,484.5,282.2266" style="stroke:#191919;stroke-width:1.0;"/><line style="stroke:#191919;stroke-width:1.0;stroke-dasharray:2.0,2.0;" x1="482.5" x2="625.5" y1="282.2266" y2="282.2266"/><text fill="#000000" font-family="sans-serif" font-size="13" lengthAdjust="spacing" textLength="111" x="494.5" y="277.1606">Usuario no existe</text><polygon fill="#191919" points="289.5,307.3594,279.5,311.3594,289.5,315.3594,285.5,311.3594" style="stroke:#191919;stroke-width:1.0;"/><line style="stroke:#191919;stroke-width:1.0;stroke-dasharray:2.0,2.0;" x1="283.5" x2="476.5" y1="311.3594" y2="311.3594"/><text fill="#000000" font-family="sans-serif" font-size="13" lengthAdjust="spacing" textLength="175" x="295.5" y="306.2935">Devuelve mensaje de error</text><line style="stroke:#393939;stroke-width:1.0;stroke-dasharray:2.0,2.0;" x1="228.5" x2="919.5" y1="320.3594" y2="320.3594"/><text fill="#393939" font-family="sans-serif" font-size="11" font-weight="bold" lengthAdjust="spacing" textLength="105" x="233.5" y="330.5698">[usuario existe]</text><polygon fill="#191919" points="847.5,351.2969,857.5,355.2969,847.5,359.2969,851.5,355.2969" style="stroke:#191919;stroke-width:1.0;"/><line style="stroke:#191919;stroke-width:1.0;" x1="477.5" x2="853.5" y1="355.2969" y2="355.2969"/><text fill="#000000" font-family="sans-serif" font-size="13" lengthAdjust="spacing" textLength="137" x="484.5" y="350.231">Verificar credenciales</text><polygon fill="#191919" points="488.5,380.4297,478.5,384.4297,488.5,388.4297,484.5,384.4297" style="stroke:#191919;stroke-width:1.0;"/><line style="stroke:#191919;stroke-width:1.0;stroke-dasharray:2.0,2.0;" x1="482.5" x2="858.5" y1="384.4297" y2="384.4297"/><text fill="#000000" font-family="sans-serif" font-size="13" lengthAdjust="spacing" textLength="142" x="494.5" y="379.3638">Credenciales inv&#225;lidas</text><polygon fill="#191919" points="289.5,409.5625,279.5,413.5625,289.5,417.5625,285.5,413.5625" style="stroke:#191919;stroke-width:1.0;"/><line style="stroke:#191919;stroke-width:1.0;stroke-dasharray:2.0,2.0;" x1="283.5" x2="476.5" y1="413.5625" y2="413.5625"/><text fill="#000000" font-family="sans-serif" font-size="13" lengthAdjust="spacing" textLength="175" x="295.5" y="408.4966">Devuelve mensaje de error</text><polygon fill="#191919" points="34.5,445.6953,24.5,449.6953,34.5,453.6953,30.5,449.6953" style="stroke:#191919;stroke-width:1.0;"/><line style="stroke:#191919;stroke-width:1.0;stroke-dasharray:2.0,2.0;" x1="28.5" x2="277.5" y1="449.6953" y2="449.6953"/><text fill="#000000" font-family="sans-serif" font-size="13" lengthAdjust="spacing" textLength="231" x="40.5" y="444.6294">Muestra mensaje de error al usuario</text><path d="M232,464.6953 L300.5,464.6953 L300.5,471.8281 L290.5,481.8281 L228.5,481.8281 L228.5,468.1953 A3.5,3.5 0 0 1 232,464.6953 " fill="#EEEEEE" style="stroke:#393939;stroke-width:1.5;"/><rect fill="none" height="221.0625" rx="3.5" ry="3.5" style="stroke:#393939;stroke-width:1.0;" width="691" x="228.5" y="464.6953"/><text fill="#191919" font-family="sans-serif" font-size="13" font-weight="bold" lengthAdjust="spacing" textLength="27" x="243.5" y="477.7622">opt</text><text fill="#393939" font-family="sans-serif" font-size="11" font-weight="bold" lengthAdjust="spacing" textLength="168" x="315.5" y="476.9058">[Inicio de sesi&#243;n exitoso]</text><polygon fill="#191919" points="847.5,498.9609,857.5,502.9609,847.5,506.9609,851.5,502.9609" style="stroke:#191919;stroke-width:1.0;"/><line style="stroke:#191919;stroke-width:1.0;" x1="477.5" x2="853.5" y1="502.9609" y2="502.9609"/><text fill="#000000" font-family="sans-serif" font-size="13" lengthAdjust="spacing" textLength="137" x="484.5" y="497.895">Verificar credenciales</text><polygon fill="#191919" points="488.5,528.0938,478.5,532.0938,488.5,536.0938,484.5,532.0938" style="stroke:#191919;stroke-width:1.0;"/><line style="stroke:#191919;stroke-width:1.0;stroke-dasharray:2.0,2.0;" x1="482.5" x2="858.5" y1="532.0938" y2="532.0938"/><text fill="#000000" font-family="sans-serif" font-size="13" lengthAdjust="spacing" textLength="131" x="494.5" y="527.0278">Credenciales validas</text><polygon fill="#191919" points="847.5,557.2266,857.5,561.2266,847.5,565.2266,851.5,561.2266" style="stroke:#191919;stroke-width:1.0;"/><line style="stroke:#191919;stroke-width:1.0;" x1="477.5" x2="853.5" y1="561.2266" y2="561.2266"/><text fill="#000000" font-family="sans-serif" font-size="13" lengthAdjust="spacing" textLength="95" x="484.5" y="556.1606">Generar Token</text><polygon fill="#191919" points="488.5,586.3594,478.5,590.3594,488.5,594.3594,484.5,590.3594" style="stroke:#191919;stroke-width:1.0;"/><line style="stroke:#191919;stroke-width:1.0;stroke-dasharray:2.0,2.0;" x1="482.5" x2="858.5" y1="590.3594" y2="590.3594"/><text fill="#000000" font-family="sans-serif" font-size="13" lengthAdjust="spacing" textLength="104" x="494.5" y="585.2935">Devuelve Token</text><polygon fill="#191919" points="847.5,615.4922,857.5,619.4922,847.5,623.4922,851.5,619.4922" style="stroke:#191919;stroke-width:1.0;"/><line style="stroke:#191919;stroke-width:1.0;" x1="477.5" x2="853.5" y1="619.4922" y2="619.4922"/><text fill="#000000" font-family="sans-serif" font-size="13" lengthAdjust="spacing" textLength="106" x="484.5" y="614.4263">Generar Cookies</text><polygon fill="#191919" points="488.5,644.625,478.5,648.625,488.5,652.625,484.5,648.625" style="stroke:#191919;stroke-width:1.0;"/><line style="stroke:#191919;stroke-width:1.0;stroke-dasharray:2.0,2.0;" x1="482.5" x2="858.5" y1="648.625" y2="648.625"/><text fill="#000000" font-family="sans-serif" font-size="13" lengthAdjust="spacing" textLength="115" x="494.5" y="643.5591">Devuelve Cookies</text><polygon fill="#191919" points="289.5,673.7578,279.5,677.7578,289.5,681.7578,285.5,677.7578" style="stroke:#191919;stroke-width:1.0;"/><line style="stroke:#191919;stroke-width:1.0;stroke-dasharray:2.0,2.0;" x1="283.5" x2="476.5" y1="677.7578" y2="677.7578"/><text fill="#000000" font-family="sans-serif" font-size="13" lengthAdjust="spacing" textLength="118" x="295.5" y="672.6919">Env&#237;a la respuesta</text><polygon fill="#191919" points="34.5,709.8906,24.5,713.8906,34.5,717.8906,30.5,713.8906" style="stroke:#191919;stroke-width:1.0;"/><line style="stroke:#191919;stroke-width:1.0;stroke-dasharray:2.0,2.0;" x1="28.5" x2="277.5" y1="713.8906" y2="713.8906"/><text fill="#000000" font-family="sans-serif" font-size="13" lengthAdjust="spacing" textLength="200" x="40.5" y="708.8247">Muestra la respuesta al usuario</text><!--SRC=[lLDBJWCn3Dtd5EO0lS0iMBJbjq12fMLlpJn4Q9fKTZ92t8O3iE88lHW9jACfRT58I6oYoFRpYzzppk8JLg0LYngkOn1QACIOSjBed2ub-0ZVL3G3E_lAb3oJ1cTh6rD3r_FvdTaL5S2OwsM-Jd94WdEGYYvyQvbS3sROHKgQM6mW7mWlLYFC0JOtx3hUGrfRew9nqffb1pVxwIr2CUKOjCUzHipScmzlkYoDHeVTPz3a8ZU7ZOyFjnWonPwGKxG9hisYmoi_WneGH88OE4Kdoo-QR6EBQ5r53n3xQ8iYjQ21hoqxgEdLd7hwf5TFrhURDsSRrhyCa7UWjmqPLVQekatGA7nGJ-mw6yCwqetF5eMILcZngeYGZGh_faBB9oNemD-4L_2GJ3SFEJQ4frDj3p60OHB2qWwRfUFuWJbfPVuUc_Ul_o7GTR69Yub7FAITYVtQde6V]--></g></svg>