<?xml version="1.0" encoding="us-ascii" standalone="no"?><svg xmlns="http://www.w3.org/2000/svg" xmlns:xlink="http://www.w3.org/1999/xlink" contentStyleType="text/css" height="825px" preserveAspectRatio="none" style="width:895px;height:825px;background:#F9F9F9;" version="1.1" viewBox="0 0 895 825" width="895px" zoomAndPan="magnify"><defs/><g><rect fill="#F9F9F9" height="825" style="stroke:none;stroke-width:1.0;" width="895" x="0" y="0"/><rect fill="none" height="542.1641" rx="3.5" ry="3.5" style="stroke:#393939;stroke-width:1.0;" width="691" x="197.5" y="156.5625"/><line style="stroke:#393939;stroke-width:0.5;stroke-dasharray:5.0,5.0;" x1="23" x2="23" y1="81.2969" y2="744.8594"/><line style="stroke:#393939;stroke-width:0.5;stroke-dasharray:5.0,5.0;" x1="247.5" x2="247.5" y1="81.2969" y2="744.8594"/><line style="stroke:#393939;stroke-width:0.5;stroke-dasharray:5.0,5.0;" x1="446" x2="446" y1="81.2969" y2="744.8594"/><line style="stroke:#393939;stroke-width:0.5;stroke-dasharray:5.0,5.0;" x1="595" x2="595" y1="81.2969" y2="744.8594"/><line style="stroke:#393939;stroke-width:0.5;stroke-dasharray:5.0,5.0;" x1="723.5" x2="723.5" y1="81.2969" y2="744.8594"/><line style="stroke:#393939;stroke-width:0.5;stroke-dasharray:5.0,5.0;" x1="828.5" x2="828.5" y1="81.2969" y2="744.8594"/><text fill="#191919" font-family="sans-serif" font-size="14" lengthAdjust="spacing" textLength="31" x="5" y="77.9951">User</text><ellipse cx="23.5" cy="13.5" fill="#191919" rx="8" ry="8" style="stroke:#191919;stroke-width:0.5;"/><path d="M23.5,21.5 L23.5,48.5 M10.5,29.5 L36.5,29.5 M23.5,48.5 L10.5,63.5 M23.5,48.5 L36.5,63.5 " fill="none" style="stroke:#191919;stroke-width:0.5;"/><text fill="#191919" font-family="sans-serif" font-size="14" lengthAdjust="spacing" textLength="31" x="5" y="756.8545">User</text><ellipse cx="23.5" cy="768.6563" fill="#191919" rx="8" ry="8" style="stroke:#191919;stroke-width:0.5;"/><path d="M23.5,776.6563 L23.5,803.6563 M10.5,784.6563 L36.5,784.6563 M23.5,803.6563 L10.5,818.6563 M23.5,803.6563 L36.5,818.6563 " fill="none" style="stroke:#191919;stroke-width:0.5;"/><rect fill="#E55756" height="30.2969" rx="3.5" ry="3.5" style="stroke:#191919;stroke-width:1.5;" width="80" x="207.5" y="50"/><text fill="#F9F9F9" font-family="sans-serif" font-size="14" lengthAdjust="spacing" textLength="66" x="214.5" y="69.9951">Frontend</text><rect fill="#E55756" height="30.2969" rx="3.5" ry="3.5" style="stroke:#191919;stroke-width:1.5;" width="80" x="207.5" y="743.8594"/><text fill="#F9F9F9" font-family="sans-serif" font-size="14" lengthAdjust="spacing" textLength="66" x="214.5" y="763.8545">Frontend</text><rect fill="#E55756" height="30.2969" rx="3.5" ry="3.5" style="stroke:#191919;stroke-width:1.5;" width="149" x="372" y="50"/><text fill="#F9F9F9" font-family="sans-serif" font-size="14" lengthAdjust="spacing" textLength="135" x="379" y="69.9951">BackendController</text><rect fill="#E55756" height="30.2969" rx="3.5" ry="3.5" style="stroke:#191919;stroke-width:1.5;" width="149" x="372" y="743.8594"/><text fill="#F9F9F9" font-family="sans-serif" font-size="14" lengthAdjust="spacing" textLength="135" x="379" y="763.8545">BackendController</text><rect fill="#E55756" height="30.2969" rx="3.5" ry="3.5" style="stroke:#191919;stroke-width:1.5;" width="129" x="531" y="50"/><text fill="#F9F9F9" font-family="sans-serif" font-size="14" lengthAdjust="spacing" textLength="115" x="538" y="69.9951">BackendService</text><rect fill="#E55756" height="30.2969" rx="3.5" ry="3.5" style="stroke:#191919;stroke-width:1.5;" width="129" x="531" y="743.8594"/><text fill="#F9F9F9" font-family="sans-serif" font-size="14" lengthAdjust="spacing" textLength="115" x="538" y="763.8545">BackendService</text><rect fill="#E55756" height="30.2969" rx="3.5" ry="3.5" style="stroke:#191919;stroke-width:1.5;" width="90" x="678.5" y="50"/><text fill="#F9F9F9" font-family="sans-serif" font-size="14" lengthAdjust="spacing" textLength="76" x="685.5" y="69.9951">BaseDatos</text><rect fill="#E55756" height="30.2969" rx="3.5" ry="3.5" style="stroke:#191919;stroke-width:1.5;" width="90" x="678.5" y="743.8594"/><text fill="#F9F9F9" font-family="sans-serif" font-size="14" lengthAdjust="spacing" textLength="76" x="685.5" y="763.8545">BaseDatos</text><rect fill="#E55756" height="30.2969" rx="3.5" ry="3.5" style="stroke:#191919;stroke-width:1.5;" width="100" x="778.5" y="50"/><text fill="#F9F9F9" font-family="sans-serif" font-size="14" lengthAdjust="spacing" textLength="86" x="785.5" y="69.9951">BackendUtil</text><rect fill="#E55756" height="30.2969" rx="3.5" ry="3.5" style="stroke:#191919;stroke-width:1.5;" width="100" x="778.5" y="743.8594"/><text fill="#F9F9F9" font-family="sans-serif" font-size="14" lengthAdjust="spacing" textLength="86" x="785.5" y="763.8545">BackendUtil</text><polygon fill="#191919" points="235.5,108.4297,245.5,112.4297,235.5,116.4297,239.5,112.4297" style="stroke:#191919;stroke-width:1.0;"/><line style="stroke:#191919;stroke-width:1.0;" x1="23.5" x2="241.5" y1="112.4297" y2="112.4297"/><text fill="#000000" font-family="sans-serif" font-size="13" lengthAdjust="spacing" textLength="167" x="30.5" y="107.3638">Realiza una solicitud HTTP</text><polygon fill="#191919" points="434.5,137.5625,444.5,141.5625,434.5,145.5625,438.5,141.5625" style="stroke:#191919;stroke-width:1.0;"/><line style="stroke:#191919;stroke-width:1.0;" x1="247.5" x2="440.5" y1="141.5625" y2="141.5625"/><text fill="#000000" font-family="sans-serif" font-size="13" lengthAdjust="spacing" textLength="106" x="254.5" y="136.4966">Envia la solicitud</text><path d="M201,156.5625 L263.5,156.5625 L263.5,163.6953 L253.5,173.6953 L197.5,173.6953 L197.5,160.0625 A3.5,3.5 0 0 1 201,156.5625 " fill="#EEEEEE" style="stroke:#393939;stroke-width:1.5;"/><rect fill="none" height="542.1641" rx="3.5" ry="3.5" style="stroke:#393939;stroke-width:1.0;" width="691" x="197.5" y="156.5625"/><text fill="#191919" font-family="sans-serif" font-size="13" font-weight="bold" lengthAdjust="spacing" textLength="21" x="212.5" y="169.6294">alt</text><text fill="#393939" font-family="sans-serif" font-size="11" font-weight="bold" lengthAdjust="spacing" textLength="124" x="278.5" y="168.7729">[usuario ya existe]</text><line style="stroke:#191919;stroke-width:1.0;" x1="593.5" x2="583.5" y1="194.8281" y2="190.8281"/><line style="stroke:#191919;stroke-width:1.0;" x1="593.5" x2="583.5" y1="194.8281" y2="198.8281"/><line style="stroke:#191919;stroke-width:1.0;" x1="446.5" x2="594.5" y1="194.8281" y2="194.8281"/><text fill="#000000" font-family="sans-serif" font-size="13" lengthAdjust="spacing" textLength="94" x="453.5" y="189.7622">Buscar usuario</text><line style="stroke:#191919;stroke-width:1.0;" x1="721.5" x2="711.5" y1="223.9609" y2="219.9609"/><line style="stroke:#191919;stroke-width:1.0;" x1="721.5" x2="711.5" y1="223.9609" y2="227.9609"/><line style="stroke:#191919;stroke-width:1.0;" x1="595.5" x2="722.5" y1="223.9609" y2="223.9609"/><text fill="#000000" font-family="sans-serif" font-size="13" lengthAdjust="spacing" textLength="104" x="602.5" y="218.895">Envia la petici&#243;n</text><polygon fill="#191919" points="606.5,249.0938,596.5,253.0938,606.5,257.0938,602.5,253.0938" style="stroke:#191919;stroke-width:1.0;"/><line style="stroke:#191919;stroke-width:1.0;stroke-dasharray:2.0,2.0;" x1="600.5" x2="722.5" y1="253.0938" y2="253.0938"/><text fill="#000000" font-family="sans-serif" font-size="13" lengthAdjust="spacing" textLength="64" x="612.5" y="248.0278">Resultado</text><polygon fill="#191919" points="457.5,278.2266,447.5,282.2266,457.5,286.2266,453.5,282.2266" style="stroke:#191919;stroke-width:1.0;"/><line style="stroke:#191919;stroke-width:1.0;stroke-dasharray:2.0,2.0;" x1="451.5" x2="594.5" y1="282.2266" y2="282.2266"/><text fill="#000000" font-family="sans-serif" font-size="13" lengthAdjust="spacing" textLength="111" x="463.5" y="277.1606">Usuario ya existe</text><polygon fill="#191919" points="258.5,307.3594,248.5,311.3594,258.5,315.3594,254.5,311.3594" style="stroke:#191919;stroke-width:1.0;"/><line style="stroke:#191919;stroke-width:1.0;stroke-dasharray:2.0,2.0;" x1="252.5" x2="445.5" y1="311.3594" y2="311.3594"/><text fill="#000000" font-family="sans-serif" font-size="13" lengthAdjust="spacing" textLength="175" x="264.5" y="306.2935">Devuelve mensaje de error</text><line style="stroke:#393939;stroke-width:1.0;stroke-dasharray:2.0,2.0;" x1="197.5" x2="888.5" y1="320.3594" y2="320.3594"/><text fill="#393939" font-family="sans-serif" font-size="11" font-weight="bold" lengthAdjust="spacing" textLength="126" x="202.5" y="330.5698">[usuario no existe]</text><polygon fill="#191919" points="583.5,351.2969,593.5,355.2969,583.5,359.2969,587.5,355.2969" style="stroke:#191919;stroke-width:1.0;"/><line style="stroke:#191919;stroke-width:1.0;" x1="446.5" x2="589.5" y1="355.2969" y2="355.2969"/><text fill="#000000" font-family="sans-serif" font-size="13" lengthAdjust="spacing" textLength="123" x="453.5" y="350.231">Petici&#243;n de registro</text><polygon fill="#191919" points="711.5,380.4297,721.5,384.4297,711.5,388.4297,715.5,384.4297" style="stroke:#191919;stroke-width:1.0;"/><line style="stroke:#191919;stroke-width:1.0;" x1="595.5" x2="717.5" y1="384.4297" y2="384.4297"/><text fill="#000000" font-family="sans-serif" font-size="13" lengthAdjust="spacing" textLength="90" x="602.5" y="379.3638">Registrar user</text><rect fill="none" height="39.1016" rx="3.5" ry="3.5" style="stroke:#000000;stroke-width:1.5;" width="243.5" x="528" y="392.4297"/><path d="M531,392.4297 L596,392.4297 L596,399.4297 L586,409.4297 L528,409.4297 L528,395.4297 A3,3 0 0 1 531,392.4297 " fill="#EEEEEE" style="stroke:#000000;stroke-width:2.0;"/><text fill="#000000" font-family="sans-serif" font-size="13" font-weight="bold" lengthAdjust="spacing" textLength="23" x="541" y="406.4966">ref</text><text fill="#000000" font-family="sans-serif" font-size="12" lengthAdjust="spacing" textLength="106" x="596.75" y="424.5684">x Proceso Muerto</text><polygon fill="#191919" points="583.5,453.6641,593.5,457.6641,583.5,461.6641,587.5,457.6641" style="stroke:#191919;stroke-width:1.0;"/><line style="stroke:#191919;stroke-width:1.0;" x1="446.5" x2="589.5" y1="457.6641" y2="457.6641"/><text fill="#000000" font-family="sans-serif" font-size="13" lengthAdjust="spacing" textLength="106" x="453.5" y="452.5981">Verificar registro</text><polygon fill="#191919" points="711.5,482.7969,721.5,486.7969,711.5,490.7969,715.5,486.7969" style="stroke:#191919;stroke-width:1.0;"/><line style="stroke:#191919;stroke-width:1.0;" x1="595.5" x2="717.5" y1="486.7969" y2="486.7969"/><text fill="#000000" font-family="sans-serif" font-size="13" lengthAdjust="spacing" textLength="94" x="602.5" y="481.731">Buscar usuario</text><polygon fill="#191919" points="606.5,511.9297,596.5,515.9297,606.5,519.9297,602.5,515.9297" style="stroke:#191919;stroke-width:1.0;"/><line style="stroke:#191919;stroke-width:1.0;stroke-dasharray:2.0,2.0;" x1="600.5" x2="722.5" y1="515.9297" y2="515.9297"/><text fill="#000000" font-family="sans-serif" font-size="13" lengthAdjust="spacing" textLength="49" x="612.5" y="510.8638">registro</text><polygon fill="#191919" points="457.5,541.0625,447.5,545.0625,457.5,549.0625,453.5,545.0625" style="stroke:#191919;stroke-width:1.0;"/><line style="stroke:#191919;stroke-width:1.0;stroke-dasharray:2.0,2.0;" x1="451.5" x2="594.5" y1="545.0625" y2="545.0625"/><text fill="#000000" font-family="sans-serif" font-size="13" lengthAdjust="spacing" textLength="87" x="463.5" y="539.9966">datos usuario</text><polygon fill="#191919" points="816.5,570.1953,826.5,574.1953,816.5,578.1953,820.5,574.1953" style="stroke:#191919;stroke-width:1.0;"/><line style="stroke:#191919;stroke-width:1.0;" x1="446.5" x2="822.5" y1="574.1953" y2="574.1953"/><text fill="#000000" font-family="sans-serif" font-size="13" lengthAdjust="spacing" textLength="95" x="453.5" y="569.1294">Generar Token</text><polygon fill="#191919" points="457.5,599.3281,447.5,603.3281,457.5,607.3281,453.5,603.3281" style="stroke:#191919;stroke-width:1.0;"/><line style="stroke:#191919;stroke-width:1.0;stroke-dasharray:2.0,2.0;" x1="451.5" x2="827.5" y1="603.3281" y2="603.3281"/><text fill="#000000" font-family="sans-serif" font-size="13" lengthAdjust="spacing" textLength="104" x="463.5" y="598.2622">Devuelve Token</text><polygon fill="#191919" points="816.5,628.4609,826.5,632.4609,816.5,636.4609,820.5,632.4609" style="stroke:#191919;stroke-width:1.0;"/><line style="stroke:#191919;stroke-width:1.0;" x1="446.5" x2="822.5" y1="632.4609" y2="632.4609"/><text fill="#000000" font-family="sans-serif" font-size="13" lengthAdjust="spacing" textLength="106" x="453.5" y="627.395">Generar Cookies</text><polygon fill="#191919" points="457.5,657.5938,447.5,661.5938,457.5,665.5938,453.5,661.5938" style="stroke:#191919;stroke-width:1.0;"/><line style="stroke:#191919;stroke-width:1.0;stroke-dasharray:2.0,2.0;" x1="451.5" x2="827.5" y1="661.5938" y2="661.5938"/><text fill="#000000" font-family="sans-serif" font-size="13" lengthAdjust="spacing" textLength="115" x="463.5" y="656.5278">Devuelve Cookies</text><polygon fill="#191919" points="258.5,686.7266,248.5,690.7266,258.5,694.7266,254.5,690.7266" style="stroke:#191919;stroke-width:1.0;"/><line style="stroke:#191919;stroke-width:1.0;stroke-dasharray:2.0,2.0;" x1="252.5" x2="445.5" y1="690.7266" y2="690.7266"/><text fill="#000000" font-family="sans-serif" font-size="13" lengthAdjust="spacing" textLength="118" x="264.5" y="685.6606">Env&#237;a la respuesta</text><polygon fill="#191919" points="34.5,722.8594,24.5,726.8594,34.5,730.8594,30.5,726.8594" style="stroke:#191919;stroke-width:1.0;"/><line style="stroke:#191919;stroke-width:1.0;stroke-dasharray:2.0,2.0;" x1="28.5" x2="246.5" y1="726.8594" y2="726.8594"/><text fill="#000000" font-family="sans-serif" font-size="13" lengthAdjust="spacing" textLength="200" x="40.5" y="721.7935">Muestra la respuesta al usuario</text><!--SRC=[bLDBKiCm3Dtx569FBv05YxPyDinqIijUawXWwjeToSuKxiIA8_HYs864_Defcqp6qdkItfEk_2lj27R8eZ3tZc4jn4gbBqnku8wTzMIB39Q4HdyW18iWpkXS-r30msgrK7LI0amntyRVMNnXPmnn1hUsr0Yc1LDeF0G9oDh1Em8Tj7XI0smaR1YVY4kTKmRJ83bo3LVTy2z2Q8xUIQlsddoiVVooged2P39aNv84ux4O4eyFjxvaYewGSoe3cJAAJbRmZQ0W86R7YenG8ujrvsJfjxsenqjiJ2yHo2FQjALP_cHLKaRBcJRWoaZUf5ptn5401rYmoqaSF0PYxrICZlOtqFMPM6zqCkwoxWOkdpFj9EMuPqL5r5kWqVRNNfiCxibIqcdbufjgXKuLQ2pk82weC7Dkgqd-LQE7ERbtyHIEdzKjCCa-a7YixFkxtfYUxZvBvgRDwEG2cbgoRm00]--></g></svg>